<mxfile host="Electron" agent="Mozilla/5.0 (Macintosh; Intel Mac OS X 10_15_7) AppleWebKit/537.36 (KHTML, like Gecko) draw.io/27.0.9 Chrome/134.0.6998.205 Electron/35.4.0 Safari/537.36" version="27.0.9">
  <diagram name="Page-1" id="ITDL9TYjYGQ5zDPRG-Ty">
    <mxGraphModel dx="304" dy="444" grid="1" gridSize="10" guides="1" tooltips="1" connect="1" arrows="1" fold="1" page="1" pageScale="1" pageWidth="325" pageHeight="180" math="0" shadow="0">
      <root>
        <mxCell id="0" />
        <mxCell id="1" parent="0" />
        <mxCell id="1u23wgNIzA0hjcPL032E-25" value="" style="rounded=1;whiteSpace=wrap;html=1;fillColor=none;strokeColor=light-dark(#E49C21,#EDEDED);dashed=1;dashPattern=8 8;" vertex="1" parent="1">
          <mxGeometry x="110" y="101" width="60.5" height="39" as="geometry" />
        </mxCell>
        <mxCell id="1u23wgNIzA0hjcPL032E-23" value="" style="rounded=1;whiteSpace=wrap;html=1;fillColor=none;strokeColor=light-dark(#E49C21,#EDEDED);dashed=1;dashPattern=8 8;" vertex="1" parent="1">
          <mxGeometry x="110" y="8" width="62" height="78" as="geometry" />
        </mxCell>
        <mxCell id="1u23wgNIzA0hjcPL032E-29" style="rounded=0;orthogonalLoop=1;jettySize=auto;html=1;exitX=1;exitY=0.5;exitDx=0;exitDy=0;jumpSize=6;strokeWidth=1;endSize=2;startSize=0;strokeColor=#9933FF;edgeStyle=elbowEdgeStyle;entryX=0;entryY=0.5;entryDx=0;entryDy=0;" edge="1" parent="1" source="1u23wgNIzA0hjcPL032E-1" target="1u23wgNIzA0hjcPL032E-14">
          <mxGeometry relative="1" as="geometry">
            <mxPoint x="220" y="90" as="targetPoint" />
          </mxGeometry>
        </mxCell>
        <mxCell id="1u23wgNIzA0hjcPL032E-1" value="" style="ellipse;whiteSpace=wrap;html=1;aspect=fixed;fillColor=#DAE8FC;strokeColor=light-dark(#6c8ebf, #ededed);" vertex="1" parent="1">
          <mxGeometry x="155" y="11" width="10" height="10" as="geometry" />
        </mxCell>
        <mxCell id="1u23wgNIzA0hjcPL032E-5" value="" style="ellipse;whiteSpace=wrap;html=1;aspect=fixed;" vertex="1" parent="1">
          <mxGeometry x="155" y="31" width="10" height="10" as="geometry" />
        </mxCell>
        <mxCell id="1u23wgNIzA0hjcPL032E-6" value="" style="ellipse;whiteSpace=wrap;html=1;aspect=fixed;fillColor=#DAE8FC;strokeColor=light-dark(#6c8ebf, #ededed);" vertex="1" parent="1">
          <mxGeometry x="155" y="31" width="10" height="10" as="geometry" />
        </mxCell>
        <mxCell id="1u23wgNIzA0hjcPL032E-7" value="" style="ellipse;whiteSpace=wrap;html=1;aspect=fixed;fillColor=#DAE8FC;strokeColor=light-dark(#6c8ebf, #ededed);" vertex="1" parent="1">
          <mxGeometry x="155" y="51" width="10" height="10" as="geometry" />
        </mxCell>
        <mxCell id="1u23wgNIzA0hjcPL032E-10" value="" style="ellipse;whiteSpace=wrap;html=1;aspect=fixed;fillColor=#DAE8FC;strokeColor=light-dark(#6c8ebf, #ededed);" vertex="1" parent="1">
          <mxGeometry x="155" y="71" width="10" height="10" as="geometry" />
        </mxCell>
        <mxCell id="1u23wgNIzA0hjcPL032E-11" value="" style="ellipse;whiteSpace=wrap;html=1;aspect=fixed;fillColor=#DAE8FC;strokeColor=light-dark(#6c8ebf, #ededed);" vertex="1" parent="1">
          <mxGeometry x="155" y="105" width="10" height="10" as="geometry" />
        </mxCell>
        <mxCell id="1u23wgNIzA0hjcPL032E-12" value="" style="ellipse;whiteSpace=wrap;html=1;aspect=fixed;fillColor=#DAE8FC;strokeColor=light-dark(#6c8ebf, #ededed);" vertex="1" parent="1">
          <mxGeometry x="155" y="125" width="10" height="10" as="geometry" />
        </mxCell>
        <mxCell id="1u23wgNIzA0hjcPL032E-13" value="" style="ellipse;whiteSpace=wrap;html=1;aspect=fixed;fillColor=#DAE8FC;strokeColor=light-dark(#6c8ebf, #ededed);" vertex="1" parent="1">
          <mxGeometry x="155" y="155.5" width="10" height="10" as="geometry" />
        </mxCell>
        <mxCell id="1u23wgNIzA0hjcPL032E-14" value="" style="ellipse;whiteSpace=wrap;html=1;aspect=fixed;fillColor=#DAE8FC;strokeColor=light-dark(#6c8ebf, #ededed);" vertex="1" parent="1">
          <mxGeometry x="220" y="85" width="11" height="11" as="geometry" />
        </mxCell>
        <mxCell id="1u23wgNIzA0hjcPL032E-15" value="&lt;font&gt;Text is in German&lt;/font&gt;" style="text;html=1;align=center;verticalAlign=middle;resizable=0;points=[];autosize=1;strokeColor=none;fillColor=none;fontSize=11;fontColor=light-dark(#000000,#EDEDED);fontStyle=0" vertex="1" parent="1">
          <mxGeometry x="222" y="75" width="110" height="30" as="geometry" />
        </mxCell>
        <mxCell id="1u23wgNIzA0hjcPL032E-16" value="&lt;font&gt;&quot;von&quot;&lt;/font&gt;" style="text;html=1;align=center;verticalAlign=middle;resizable=0;points=[];autosize=1;strokeColor=none;fillColor=none;fontSize=7;" vertex="1" parent="1">
          <mxGeometry x="115" y="6" width="40" height="20" as="geometry" />
        </mxCell>
        <mxCell id="1u23wgNIzA0hjcPL032E-17" value="&lt;font&gt;&quot;Berlin&quot;&lt;/font&gt;" style="text;html=1;align=center;verticalAlign=middle;resizable=0;points=[];autosize=1;strokeColor=none;fillColor=none;fontSize=7;" vertex="1" parent="1">
          <mxGeometry x="110" y="120" width="50" height="20" as="geometry" />
        </mxCell>
        <mxCell id="1u23wgNIzA0hjcPL032E-18" value="&lt;font&gt;Text about Nazi Germany&lt;/font&gt;" style="text;html=1;align=center;verticalAlign=middle;resizable=0;points=[];autosize=1;strokeColor=none;fillColor=none;fontSize=11;" vertex="1" parent="1">
          <mxGeometry x="14" y="145" width="150" height="30" as="geometry" />
        </mxCell>
        <mxCell id="1u23wgNIzA0hjcPL032E-19" value="&lt;font&gt;&quot;Austria&quot;&lt;/font&gt;" style="text;html=1;align=center;verticalAlign=middle;resizable=0;points=[];autosize=1;strokeColor=none;fillColor=none;fontSize=7;" vertex="1" parent="1">
          <mxGeometry x="110" y="100" width="50" height="20" as="geometry" />
        </mxCell>
        <mxCell id="1u23wgNIzA0hjcPL032E-20" value="&lt;font&gt;&quot;Kle&quot;&lt;/font&gt;" style="text;html=1;align=center;verticalAlign=middle;resizable=0;points=[];autosize=1;strokeColor=none;fillColor=none;fontSize=7;" vertex="1" parent="1">
          <mxGeometry x="115" y="26" width="40" height="20" as="geometry" />
        </mxCell>
        <mxCell id="1u23wgNIzA0hjcPL032E-21" value="&lt;font&gt;&quot;Pf&quot;&lt;/font&gt;" style="text;html=1;align=center;verticalAlign=middle;resizable=0;points=[];autosize=1;strokeColor=none;fillColor=none;fontSize=7;" vertex="1" parent="1">
          <mxGeometry x="115" y="46" width="40" height="20" as="geometry" />
        </mxCell>
        <mxCell id="1u23wgNIzA0hjcPL032E-22" value="&lt;font&gt;&quot;sch&quot;&lt;/font&gt;" style="text;html=1;align=center;verticalAlign=middle;resizable=0;points=[];autosize=1;strokeColor=none;fillColor=none;fontSize=7;" vertex="1" parent="1">
          <mxGeometry x="115" y="66" width="40" height="20" as="geometry" />
        </mxCell>
        <mxCell id="1u23wgNIzA0hjcPL032E-24" value="Common tokens&lt;div&gt;in German text&lt;/div&gt;" style="text;html=1;align=center;verticalAlign=middle;resizable=0;points=[];autosize=1;strokeColor=none;fillColor=none;fontColor=light-dark(#e49c1e, #ededed);fontSize=11;" vertex="1" parent="1">
          <mxGeometry x="3.5" y="27" width="100" height="40" as="geometry" />
        </mxCell>
        <mxCell id="1u23wgNIzA0hjcPL032E-26" value="&lt;div&gt;Place names in&lt;/div&gt;&lt;div&gt;German-speaking&lt;/div&gt;&lt;div&gt;countries&lt;/div&gt;" style="text;html=1;align=center;verticalAlign=middle;resizable=0;points=[];autosize=1;strokeColor=none;fillColor=none;fontColor=light-dark(#e49c1e, #ededed);fontSize=11;" vertex="1" parent="1">
          <mxGeometry y="95.5" width="110" height="50" as="geometry" />
        </mxCell>
        <mxCell id="1u23wgNIzA0hjcPL032E-31" style="rounded=0;orthogonalLoop=1;jettySize=auto;html=1;exitX=1;exitY=0.5;exitDx=0;exitDy=0;jumpSize=6;strokeWidth=1;endSize=2;startSize=0;strokeColor=#9933FF;edgeStyle=elbowEdgeStyle;entryX=0;entryY=0.5;entryDx=0;entryDy=0;" edge="1" parent="1" source="1u23wgNIzA0hjcPL032E-6" target="1u23wgNIzA0hjcPL032E-14">
          <mxGeometry relative="1" as="geometry">
            <mxPoint x="220" y="80" as="targetPoint" />
            <mxPoint x="200" y="50" as="sourcePoint" />
          </mxGeometry>
        </mxCell>
        <mxCell id="1u23wgNIzA0hjcPL032E-32" style="rounded=0;orthogonalLoop=1;jettySize=auto;html=1;exitX=1;exitY=0.5;exitDx=0;exitDy=0;jumpSize=6;strokeWidth=1;endSize=2;startSize=0;strokeColor=#9933FF;edgeStyle=elbowEdgeStyle;entryX=0;entryY=0.5;entryDx=0;entryDy=0;" edge="1" parent="1" source="1u23wgNIzA0hjcPL032E-7" target="1u23wgNIzA0hjcPL032E-14">
          <mxGeometry relative="1" as="geometry">
            <mxPoint x="220" y="80" as="targetPoint" />
            <mxPoint x="200" y="50" as="sourcePoint" />
          </mxGeometry>
        </mxCell>
        <mxCell id="1u23wgNIzA0hjcPL032E-33" style="rounded=0;orthogonalLoop=1;jettySize=auto;html=1;exitX=1;exitY=0.5;exitDx=0;exitDy=0;jumpSize=6;strokeWidth=1;endSize=2;startSize=0;strokeColor=#9933FF;edgeStyle=elbowEdgeStyle;entryX=0;entryY=0.5;entryDx=0;entryDy=0;" edge="1" parent="1" source="1u23wgNIzA0hjcPL032E-10" target="1u23wgNIzA0hjcPL032E-14">
          <mxGeometry relative="1" as="geometry">
            <mxPoint x="220" y="80" as="targetPoint" />
            <mxPoint x="200" y="50" as="sourcePoint" />
          </mxGeometry>
        </mxCell>
        <mxCell id="1u23wgNIzA0hjcPL032E-34" style="rounded=0;orthogonalLoop=1;jettySize=auto;html=1;exitX=1;exitY=0.5;exitDx=0;exitDy=0;jumpSize=6;strokeWidth=1;endSize=2;startSize=0;strokeColor=#9933FF;edgeStyle=elbowEdgeStyle;entryX=0;entryY=0.5;entryDx=0;entryDy=0;" edge="1" parent="1" source="1u23wgNIzA0hjcPL032E-11" target="1u23wgNIzA0hjcPL032E-14">
          <mxGeometry relative="1" as="geometry">
            <mxPoint x="220" y="80" as="targetPoint" />
            <mxPoint x="200" y="50" as="sourcePoint" />
          </mxGeometry>
        </mxCell>
        <mxCell id="1u23wgNIzA0hjcPL032E-35" style="rounded=0;orthogonalLoop=1;jettySize=auto;html=1;exitX=1;exitY=0.5;exitDx=0;exitDy=0;jumpSize=6;strokeWidth=1;endSize=2;startSize=0;strokeColor=#9933FF;edgeStyle=elbowEdgeStyle;entryX=0;entryY=0.5;entryDx=0;entryDy=0;" edge="1" parent="1" source="1u23wgNIzA0hjcPL032E-12" target="1u23wgNIzA0hjcPL032E-14">
          <mxGeometry relative="1" as="geometry">
            <mxPoint x="220" y="90" as="targetPoint" />
            <mxPoint x="200" y="50" as="sourcePoint" />
          </mxGeometry>
        </mxCell>
        <mxCell id="1u23wgNIzA0hjcPL032E-36" style="rounded=0;orthogonalLoop=1;jettySize=auto;html=1;exitX=1;exitY=0.5;exitDx=0;exitDy=0;jumpSize=6;strokeWidth=1;endSize=2;startSize=0;strokeColor=#9933FF;edgeStyle=elbowEdgeStyle;entryX=0;entryY=0.5;entryDx=0;entryDy=0;" edge="1" parent="1" source="1u23wgNIzA0hjcPL032E-13" target="1u23wgNIzA0hjcPL032E-14">
          <mxGeometry relative="1" as="geometry">
            <mxPoint x="220" y="90" as="targetPoint" />
            <mxPoint x="200" y="50" as="sourcePoint" />
          </mxGeometry>
        </mxCell>
      </root>
    </mxGraphModel>
  </diagram>
</mxfile>
